# xmcd
#
# Track frame offsets:
# 150
# 18255
# 39189
# 57569
# 73480
# 93829
# 117385
# 139558
# 161317
# 178909
# 199973
# 220576
# 255017
# 271866
# 293627
#
# Disc length: 4183 seconds
#
# Revision: 1
# Processed by: cddbd v1.5.2PL0 Copyright (c) Steve Scherf et al.
# Submitted via: CedeCatalogueitor 2.6.0.6 http://personales.ya.com/cdcatalogueitor
#
DISCID=d010550f
DTITLE=Mick Jagger Con Lenny Kravitz - Goddess In The Doorway
DYEAR=1900
DGENRE=
TTITLE0=Visions Of Paradise
TTITLE1=Joy
TTITLE2=Dancing In The Starlight
TTITLE3=God Gave Me Everything
TTITLE4=Hide Away
TTITLE5=Don't Call Me Up
TTITLE6=Goddess In The Doorway
TTITLE7=Lucky Day
TTITLE8=Everybody Getting High
TTITLE9=Gun
TTITLE10=Tod Far Gone
TTITLE11=Brand New Set Of Rules
TTITLE12=Beast Of Burden
TTITLE13=Il Things Could Be Different
TTITLE14=Use Me
EXTD=
EXTT0=
EXTT1=
EXTT2=
EXTT3=
EXTT4=
EXTT5=
EXTT6=
EXTT7=
EXTT8=
EXTT9=
EXTT10=
EXTT11=
EXTT12=
EXTT13=
EXTT14=
PLAYORDER=
